<svg width="525" height="469" viewBox="0 0 525 469" fill="none" xmlns="http://www.w3.org/2000/svg">
<path d="M52.0225 4.4464C51.7816 4.25873 51.5012 4.12837 51.2024 4.06523C50.9037 4.00208 50.5945 4.00781 50.2983 4.08196L34.9342 7.92236L19.5148 0.211402C19.0851 -0.00288721 18.593 -0.056378 18.1274 0.0606012L2.04195 4.08196C1.60696 4.19069 1.2208 4.4417 0.944828 4.79508C0.66886 5.14847 0.518928 5.58395 0.51886 6.03232V42.2246C0.518906 42.5301 0.588578 42.8316 0.722584 43.1062C0.85659 43.3807 1.05141 43.6212 1.29223 43.8092C1.53306 43.9972 1.81357 44.1278 2.11245 44.1912C2.41133 44.2546 2.72072 44.249 3.01713 44.1749L18.3813 40.3345L33.8007 48.0455C34.0806 48.1835 34.3884 48.2557 34.7004 48.2566C34.8648 48.2565 35.0286 48.2363 35.188 48.1963L51.2735 44.1749C51.7085 44.0662 52.0946 43.8152 52.3706 43.4618C52.6466 43.1084 52.7965 42.673 52.7966 42.2246V6.03232C52.7966 5.72651 52.727 5.42471 52.5928 5.14989C52.4587 4.87507 52.2636 4.63447 52.0225 4.4464ZM18.615 36.1925C18.4506 36.1926 18.2869 36.2129 18.1274 36.2529L4.54022 39.6484V7.60317L18.3813 4.14228L18.615 4.2579V36.1925ZM48.7752 40.6537L34.9342 44.1146L34.7004 43.999V12.0644C34.8647 12.0651 35.0285 12.0457 35.188 12.0066L48.7752 8.60851V40.6537Z" fill="#CCCCCC"/>
<path d="M46.7645 132.278H40.7325V130.267C40.7325 129.734 40.5206 129.223 40.1436 128.846C39.7665 128.468 39.2551 128.257 38.7218 128.257C38.1885 128.257 37.6771 128.468 37.3 128.846C36.923 129.223 36.7111 129.734 36.7111 130.267V132.278H16.6043V130.267C16.6043 129.734 16.3925 129.223 16.0154 128.846C15.6383 128.468 15.1269 128.257 14.5936 128.257C14.0604 128.257 13.5489 128.468 13.1719 128.846C12.7948 129.223 12.5829 129.734 12.5829 130.267V132.278H6.5509C5.48437 132.278 4.46152 132.702 3.70737 133.456C2.95322 134.21 2.52954 135.233 2.52954 136.299L2.52954 176.513C2.52954 177.58 2.95322 178.602 3.70737 179.357C4.46152 180.111 5.48437 180.534 6.5509 180.534H46.7645C47.8311 180.534 48.8539 180.111 49.6081 179.357C50.3622 178.602 50.7859 177.58 50.7859 176.513V136.299C50.7859 135.233 50.3622 134.21 49.6081 133.456C48.8539 132.702 47.8311 132.278 46.7645 132.278ZM37.1283 157.829L25.0643 169.893C24.8775 170.08 24.6558 170.228 24.4117 170.329C24.1676 170.43 23.9059 170.483 23.6417 170.483C23.3775 170.483 23.1158 170.43 22.8717 170.329C22.6276 170.228 22.4059 170.08 22.2191 169.893L16.1871 163.861C15.8098 163.483 15.5979 162.972 15.5979 162.438C15.5979 161.905 15.8098 161.393 16.1871 161.016C16.5644 160.638 17.0761 160.426 17.6097 160.426C18.1432 160.426 18.6549 160.638 19.0322 161.016L23.6417 165.628L34.2832 154.984C34.47 154.797 34.6918 154.649 34.9359 154.548C35.18 154.446 35.4416 154.394 35.7058 154.394C35.97 154.394 36.2316 154.446 36.4757 154.548C36.7197 154.649 36.9415 154.797 37.1283 154.984C37.3152 155.17 37.4633 155.392 37.5644 155.636C37.6655 155.88 37.7176 156.142 37.7176 156.406C37.7176 156.67 37.6655 156.932 37.5644 157.176C37.4633 157.42 37.3152 157.642 37.1283 157.829ZM6.5509 144.342L6.5509 136.299H12.5829V138.31C12.5829 138.843 12.7948 139.355 13.1719 139.732C13.5489 140.109 14.0604 140.321 14.5936 140.321C15.1269 140.321 15.6383 140.109 16.0154 139.732C16.3925 139.355 16.6043 138.843 16.6043 138.31V136.299H36.7111V138.31C36.7111 138.843 36.923 139.355 37.3 139.732C37.6771 140.109 38.1885 140.321 38.7218 140.321C39.2551 140.321 39.7665 140.109 40.1436 139.732C40.5206 139.355 40.7325 138.843 40.7325 138.31V136.299H46.7645V144.342H6.5509Z" fill="#CCCCCC"/>
<path d="M52.7995 278.63C52.8025 281.639 52.0549 284.602 50.6244 287.25C49.1938 289.898 47.1255 292.147 44.6066 293.794C42.0877 295.441 39.1978 296.434 36.1986 296.682C33.1994 296.931 30.1855 296.428 27.4298 295.218L14.3452 310.353C14.3151 310.389 14.2799 310.426 14.2472 310.459C12.7388 311.968 10.6928 312.815 8.55951 312.815C6.42621 312.815 4.38027 311.968 2.8718 310.459C1.36332 308.951 0.515869 306.905 0.515869 304.771C0.515869 302.638 1.36332 300.592 2.8718 299.084C2.90698 299.051 2.94217 299.016 2.97987 298.986L18.1153 285.904C16.7592 282.802 16.2996 279.382 16.7886 276.032C17.2776 272.682 18.6955 269.536 20.8816 266.951C23.0678 264.366 25.9345 262.446 29.1568 261.407C32.379 260.369 35.8278 260.254 39.1118 261.077C39.4503 261.162 39.761 261.333 40.0131 261.574C40.2653 261.816 40.4503 262.118 40.5499 262.453C40.6496 262.787 40.6605 263.142 40.5815 263.482C40.5025 263.822 40.3364 264.136 40.0996 264.392L30.682 274.609L32.1046 281.231L38.7248 282.651L48.9415 273.221C49.1978 272.984 49.5114 272.818 49.8513 272.739C50.1913 272.66 50.546 272.671 50.8804 272.771C51.2149 272.871 51.5177 273.056 51.759 273.308C52.0003 273.56 52.1718 273.87 52.2566 274.209C52.6175 275.655 52.7998 277.14 52.7995 278.63Z" fill="#CCCCCC"/>
<path d="M513.107 165H472.893C471.827 165 470.804 165.424 470.05 166.178C469.296 166.932 468.872 167.955 468.872 169.021V183.792C468.872 206.314 487.928 213.787 491.743 215.056C492.558 215.333 493.442 215.333 494.257 215.056C498.077 213.787 517.128 206.314 517.128 183.792V169.021C517.128 167.955 516.705 166.932 515.95 166.178C515.196 165.424 514.173 165 513.107 165ZM504.476 182.508L490.401 196.583C490.214 196.77 489.993 196.918 489.749 197.019C489.505 197.12 489.243 197.172 488.979 197.172C488.714 197.172 488.453 197.12 488.209 197.019C487.965 196.918 487.743 196.77 487.556 196.583L481.524 190.551C481.147 190.173 480.935 189.662 480.935 189.128C480.935 188.595 481.147 188.083 481.524 187.706C481.901 187.328 482.413 187.116 482.947 187.116C483.48 187.116 483.992 187.328 484.369 187.706L488.979 192.315L501.631 179.663C501.818 179.476 502.039 179.328 502.284 179.227C502.528 179.126 502.789 179.074 503.053 179.074C503.318 179.074 503.579 179.126 503.823 179.227C504.067 179.328 504.289 179.476 504.476 179.663C504.663 179.85 504.811 180.071 504.912 180.316C505.013 180.56 505.065 180.821 505.065 181.085C505.065 181.35 505.013 181.611 504.912 181.855C504.811 182.099 504.663 182.321 504.476 182.508Z" fill="#CCCCCC"/>
<path d="M490.929 337.983C490.82 338.418 490.569 338.804 490.215 339.08C489.862 339.356 489.427 339.506 488.978 339.506C488.809 339.507 488.64 339.486 488.476 339.446L480.433 337.435C480.209 337.379 479.996 337.284 479.804 337.156L473.772 333.135C473.329 332.839 473.021 332.379 472.917 331.856C472.812 331.333 472.92 330.79 473.216 330.346C473.512 329.902 473.972 329.594 474.495 329.49C475.018 329.386 475.561 329.493 476.004 329.789L481.745 333.617L489.451 335.545C489.708 335.607 489.951 335.72 490.165 335.876C490.378 336.033 490.559 336.23 490.696 336.457C490.834 336.683 490.925 336.935 490.965 337.197C491.005 337.458 490.992 337.726 490.929 337.983ZM524.278 313.739C524.113 314.24 523.851 314.704 523.506 315.103C523.16 315.502 522.74 315.828 522.268 316.064L516.316 319.04L512.526 322.832L502.472 332.886C502.227 333.131 501.922 333.309 501.587 333.401C501.252 333.494 500.899 333.498 500.562 333.414L484.477 329.392C484.232 329.331 484.001 329.224 483.796 329.078L469.842 319.115L463.739 316.064C462.785 315.587 462.06 314.751 461.723 313.74C461.385 312.728 461.463 311.624 461.94 310.67L468.185 298.181C468.662 297.228 469.498 296.502 470.509 296.165C471.521 295.827 472.625 295.905 473.579 296.382L479.123 299.146L492.444 295.341C492.805 295.238 493.189 295.238 493.55 295.341L506.871 299.146L512.415 296.382C513.369 295.905 514.473 295.827 515.485 296.165C516.496 296.502 517.332 297.228 517.809 298.181L524.055 310.67C524.293 311.142 524.435 311.655 524.474 312.182C524.512 312.709 524.446 313.238 524.278 313.739ZM508.08 321.576L501.115 315.998C496.204 320.02 489.968 320.55 484.801 317.255C484.293 316.932 483.864 316.498 483.545 315.987C483.227 315.475 483.028 314.899 482.962 314.3C482.896 313.701 482.966 313.095 483.166 312.527C483.366 311.959 483.691 311.443 484.117 311.017C484.123 311.01 484.13 311.003 484.137 310.997L495.412 300.061L493 299.373L480.327 302.994L473.448 316.75L485.814 325.584L500.427 329.236L508.08 321.576ZM512.664 316.991L505.833 303.314H497.835L486.968 313.87C490.149 315.903 495.138 316.463 499.615 311.952C499.964 311.6 500.432 311.389 500.927 311.361C501.423 311.332 501.912 311.488 502.299 311.799L510.947 318.728L512.664 316.991Z" fill="#CCCCCC"/>
<path d="M515.118 419.506H470.883C469.816 419.506 468.793 419.93 468.039 420.684C467.285 421.438 466.861 422.461 466.861 423.527V463.741C466.857 464.508 467.073 465.26 467.486 465.906C467.898 466.553 468.489 467.066 469.186 467.385C469.717 467.633 470.296 467.761 470.883 467.762C471.827 467.76 472.739 467.423 473.459 466.812C473.471 466.804 473.482 466.795 473.491 466.785L481.564 459.72H515.118C516.184 459.72 517.207 459.296 517.961 458.542C518.715 457.788 519.139 456.765 519.139 455.698V423.527C519.139 422.461 518.715 421.438 517.961 420.684C517.207 419.93 516.184 419.506 515.118 419.506ZM481.941 442.629C481.345 442.629 480.762 442.452 480.266 442.12C479.77 441.789 479.383 441.318 479.155 440.767C478.927 440.216 478.867 439.609 478.983 439.024C479.1 438.439 479.387 437.902 479.809 437.48C480.23 437.058 480.768 436.771 481.353 436.655C481.938 436.538 482.544 436.598 483.095 436.826C483.647 437.055 484.118 437.441 484.449 437.937C484.78 438.433 484.957 439.016 484.957 439.613C484.957 440.413 484.64 441.18 484.074 441.745C483.508 442.311 482.741 442.629 481.941 442.629ZM493 442.629C492.404 442.629 491.82 442.452 491.324 442.12C490.828 441.789 490.442 441.318 490.214 440.767C489.985 440.216 489.926 439.609 490.042 439.024C490.158 438.439 490.446 437.902 490.867 437.48C491.289 437.058 491.827 436.771 492.412 436.655C492.997 436.538 493.603 436.598 494.154 436.826C494.705 437.055 495.176 437.441 495.508 437.937C495.839 438.433 496.016 439.016 496.016 439.613C496.016 440.413 495.698 441.18 495.133 441.745C494.567 442.311 493.8 442.629 493 442.629ZM504.059 442.629C503.462 442.629 502.879 442.452 502.383 442.12C501.887 441.789 501.501 441.318 501.272 440.767C501.044 440.216 500.984 439.609 501.101 439.024C501.217 438.439 501.504 437.902 501.926 437.48C502.348 437.058 502.885 436.771 503.47 436.655C504.055 436.538 504.662 436.598 505.213 436.826C505.764 437.055 506.235 437.441 506.566 437.937C506.898 438.433 507.075 439.016 507.075 439.613C507.075 440.413 506.757 441.18 506.191 441.745C505.626 442.311 504.859 442.629 504.059 442.629Z" fill="#CCCCCC"/>
<g clip-path="url(#clip0_13_638)">
<path d="M187.687 126C152.894 126 124.687 97.7939 124.687 63C124.687 28.2061 152.894 0 187.687 0C222.481 0 250.687 28.2061 250.687 63C250.687 97.7939 222.481 126 187.687 126Z" fill="#F3970C"/>
<path d="M280.629 456.499L411.682 451.97L415.514 132.469C415.607 124.714 412.515 117.12 407.03 111.636L270.91 35.5151C260.254 24.8603 243.483 24.0903 231.897 33.7284L149.289 102.447C142.55 108.053 138.744 116.295 138.847 125.061L141.686 365.342L105.782 415.208L105.706 415.313L99.6223 468.037L280.629 456.499Z" fill="#F1F2F2"/>
<path d="M268.688 109.908V95.0922C268.688 91.1816 265.506 87.9999 261.595 87.9999H240.779C236.869 87.9999 233.688 91.1816 233.688 95.0922V109.908C233.688 113.818 236.869 117 240.779 117H261.595C265.506 117 268.688 113.818 268.688 109.908Z" fill="#0065F2"/>
<path d="M312.688 224.908V170.092C312.688 166.182 309.506 163 305.595 163H274.779C270.869 163 267.688 166.182 267.688 170.092V224.908C267.688 228.818 270.869 232 274.779 232H305.595C309.506 232 312.688 228.818 312.688 224.908Z" fill="#414141"/>
<path d="M387.348 288.589V233.773C387.348 229.862 384.166 226.681 380.256 226.681H349.44C345.529 226.681 342.348 229.862 342.348 233.773V288.589C342.348 292.499 345.529 295.681 349.44 295.681H380.256C384.166 295.681 387.348 292.499 387.348 288.589Z" fill="#414141"/>
<path d="M243.031 353.219C246.756 353.087 249.759 350.064 249.869 346.339L251.427 293.357C251.494 291.096 250.515 288.994 248.741 287.589C246.968 286.184 244.697 285.716 242.51 286.296L240.952 286.712C237.853 287.539 235.688 290.356 235.688 293.564V346.131C235.688 348.072 236.457 349.885 237.854 351.233C239.189 352.522 240.927 353.223 242.773 353.223C242.859 353.223 242.945 353.222 243.031 353.219Z" fill="#414141"/>
<path d="M307.688 345.908V290.934C307.688 287.053 304.648 283.938 300.768 283.843L272.76 283.16C268.878 283.106 265.611 286.153 265.497 290.045L263.884 345.702C263.828 347.635 264.539 349.463 265.887 350.85C267.234 352.236 269.04 353 270.973 353H300.595C304.506 353 307.688 349.818 307.688 345.908Z" fill="#414141"/>
<path d="M142.14 383.473L120.187 422.5L117.667 466.39L100.187 467.5L106.187 415.5L142.187 365.5C145.295 371.093 145.277 377.897 142.14 383.473Z" fill="#CCCCCC"/>
<path d="M118.369 453.828L189.618 454.802L189.604 455.802L118.356 454.828L118.369 453.828Z" fill="#3F3D56"/>
<path d="M122.691 445.003L190.246 445.53L190.238 446.53L122.684 446.003L122.691 445.003Z" fill="#3F3D56"/>
<path d="M126.198 435.984L190.817 437.246L190.798 438.246L126.178 436.984L126.198 435.984Z" fill="#3F3D56"/>
<path d="M128.204 427.015L190.259 429.075L190.226 430.075L128.171 428.015L128.204 427.015Z" fill="#3F3D56"/>
<path d="M131.204 419.029L190.826 421.125L190.791 422.125L131.169 420.029L131.204 419.029Z" fill="#3F3D56"/>
<path d="M135.188 412H193.259V413H135.188V412Z" fill="#3F3D56"/>
<path d="M138.194 404.983L194.63 405.645L194.618 406.645L138.182 405.983L138.194 404.983Z" fill="#3F3D56"/>
<path d="M141.205 397.989L195.89 399.805L195.857 400.805L141.171 398.989L141.205 397.989Z" fill="#3F3D56"/>
<path d="M143.196 391.026L197.197 391.975L197.179 392.975L143.178 392.026L143.196 391.026Z" fill="#3F3D56"/>
<path d="M147.204 384.1L198.91 385.715L198.879 386.715L147.172 385.1L147.204 384.1Z" fill="#3F3D56"/>
<path d="M149.192 378L200.442 378.501L200.433 379.501L149.183 379L149.192 378Z" fill="#3F3D56"/>
<path d="M204.188 357.408V289.593C204.188 285.682 201.006 282.5 197.095 282.5H164.279C160.369 282.5 157.188 285.682 157.188 289.593V357.408C157.188 361.318 160.369 364.5 164.279 364.5H197.095C201.006 364.5 204.188 361.318 204.188 357.408Z" fill="#0065F2"/>
<path d="M280.629 456.499L398.719 452.799L399.188 452.768V407.811C399.188 402.126 334.562 397.5 328.877 397.5H271.499C265.813 397.5 261.188 402.126 261.188 407.811V456.5H261.688L280.629 456.499Z" fill="#CCCCCC"/>
<path d="M200.188 234.408V182.592C200.188 178.682 197.006 175.5 193.095 175.5H182.279C178.369 175.5 175.188 178.682 175.188 182.592V234.408C175.188 238.318 178.369 241.5 182.279 241.5H193.095C197.006 241.5 200.188 238.318 200.188 234.408Z" fill="#414141"/>
<path d="M189.187 461.5L192.187 417.5L201.187 375.5L203.687 364C208.825 360.507 215.743 364.393 215.433 370.597L215.187 375.5L206.187 417.5L203.187 461.5" fill="#CCCCCC"/>
</g>
<defs>
<clipPath id="clip0_13_638">
<rect width="315.894" height="468.037" fill="white" transform="matrix(-1 0 0 1 415.516 0)"/>
</clipPath>
</defs>
</svg>
