<svg width="25" height="25" viewBox="0 0 25 25" fill="none" xmlns="http://www.w3.org/2000/svg">
<path d="M22.4996 0.0370483H2.49963C1.9692 0.0370483 1.46049 0.247762 1.08542 0.622835C0.710347 0.997907 0.499634 1.50662 0.499634 2.03705V22.037C0.499634 22.5675 0.710347 23.0762 1.08542 23.4513C1.46049 23.8263 1.9692 24.037 2.49963 24.037H22.4996C23.0301 24.037 23.5388 23.8263 23.9138 23.4513C24.2889 23.0762 24.4996 22.5675 24.4996 22.037V2.03705C24.4996 1.50662 24.2889 0.997907 23.9138 0.622835C23.5388 0.247762 23.0301 0.0370483 22.4996 0.0370483ZM2.49963 2.03705H22.4996V11.7095L19.4134 8.62205C19.0383 8.24726 18.5298 8.03673 17.9996 8.03673C17.4694 8.03673 16.9609 8.24726 16.5859 8.62205L3.17088 22.037H2.49963V2.03705ZM6.49963 8.03705C6.49963 7.64149 6.61693 7.25481 6.83669 6.92591C7.05646 6.59701 7.36881 6.34066 7.73427 6.18929C8.09972 6.03791 8.50185 5.99831 8.88981 6.07548C9.27778 6.15265 9.63414 6.34313 9.91385 6.62284C10.1936 6.90254 10.384 7.25891 10.4612 7.64687C10.5384 8.03483 10.4988 8.43696 10.3474 8.80241C10.196 9.16787 9.93967 9.48022 9.61077 9.69999C9.28188 9.91975 8.8952 10.037 8.49963 10.037C7.9692 10.037 7.46049 9.82633 7.08542 9.45126C6.71035 9.07619 6.49963 8.56748 6.49963 8.03705Z" fill="#0065F2"/>
</svg>
