<svg width="30" height="30" viewBox="0 0 30 30" fill="none" xmlns="http://www.w3.org/2000/svg">
<path d="M28.3273 1.20894C27.9558 0.837413 27.5149 0.542694 27.0295 0.341618C26.5441 0.140542 26.0239 0.0370483 25.4985 0.0370483C24.9732 0.0370483 24.453 0.140542 23.9676 0.341618C23.4822 0.542694 23.0412 0.837413 22.6698 1.20894C22.6573 1.22144 22.6448 1.23394 22.6335 1.24769L15.7698 8.89519L14.6223 7.74394C14.3437 7.4652 14.0129 7.24408 13.6488 7.09322C13.2848 6.94236 12.8945 6.86471 12.5004 6.86471C12.1063 6.86471 11.7161 6.94236 11.352 7.09322C10.9879 7.24408 10.6571 7.4652 10.3785 7.74394L0.792295 17.3314C0.604901 17.519 0.499634 17.7732 0.499634 18.0383C0.499634 18.3034 0.604901 18.5577 0.792295 18.7452L10.7923 28.7452C10.9798 28.9326 11.2341 29.0379 11.4992 29.0379C11.7643 29.0379 12.0185 28.9326 12.206 28.7452L21.7923 19.1639C22.071 18.8853 22.2922 18.5546 22.443 18.1905C22.5939 17.8264 22.6715 17.4362 22.6715 17.0421C22.6715 16.648 22.5939 16.2577 22.443 15.8937C22.2922 15.5296 22.071 15.1988 21.7923 14.9202L20.641 13.7702L28.2885 6.90644C28.3024 6.89492 28.3153 6.88239 28.3273 6.86894C28.6992 6.49745 28.9942 6.0563 29.1955 5.57071C29.3968 5.08511 29.5004 4.56461 29.5004 4.03894C29.5004 3.51328 29.3968 2.99277 29.1955 2.50718C28.9942 2.02159 28.6992 1.58044 28.3273 1.20894ZM11.4973 26.6252L9.4123 24.5389L12.2048 21.7452C12.3844 21.5561 12.4831 21.3044 12.4797 21.0436C12.4764 20.7829 12.3713 20.5337 12.1869 20.3493C12.0025 20.1649 11.7534 20.0598 11.4926 20.0565C11.2319 20.0532 10.9801 20.1518 10.791 20.3314L7.9973 23.1239L6.4123 21.5389L9.2048 18.7452C9.38442 18.5561 9.48307 18.3044 9.47974 18.0436C9.4764 17.7829 9.37133 17.5337 9.18692 17.3493C9.00252 17.1649 8.75338 17.0598 8.49262 17.0565C8.23186 17.0532 7.98011 17.1518 7.79105 17.3314L4.9973 20.1239L2.91105 18.0389L8.4973 12.4527L17.0835 21.0389L11.4973 26.6252Z" fill="#0065F2"/>
</svg>
