<svg width="31" height="27" viewBox="0 0 31 27" fill="none" xmlns="http://www.w3.org/2000/svg">
<path d="M30.0561 7.21163L27.1523 5.27663C26.6123 3.56839 25.4787 2.10986 23.9566 1.16498C22.4345 0.220104 20.6244 -0.148702 18.854 0.125304C17.0835 0.399311 15.4696 1.29803 14.3043 2.65882C13.139 4.01961 12.4994 5.75258 12.5011 7.54413V9.69288L0.719803 24.4191C0.60202 24.5662 0.528204 24.7436 0.506861 24.9309C0.485519 25.1181 0.51752 25.3076 0.599175 25.4774C0.680831 25.6473 0.808817 25.7906 0.968384 25.8908C1.12795 25.9911 1.3126 26.0442 1.50105 26.0441H14.5011C17.9478 26.0405 21.2522 24.6697 23.6894 22.2325C26.1266 19.7953 27.4974 16.4908 27.5011 13.0441V10.5791L30.0561 8.87663C30.1932 8.78535 30.3057 8.66158 30.3835 8.51634C30.4613 8.37111 30.502 8.20889 30.502 8.04413C30.502 7.87936 30.4613 7.71715 30.3835 7.57191C30.3057 7.42667 30.1932 7.30291 30.0561 7.21163ZM14.2698 15.6841L9.2698 21.6841C9.10006 21.888 8.85628 22.0161 8.59209 22.0403C8.3279 22.0644 8.06494 21.9826 7.86105 21.8129C7.65717 21.6431 7.52906 21.3994 7.50492 21.1352C7.48077 20.871 7.56256 20.608 7.7323 20.4041L12.7323 14.4041C12.8163 14.3032 12.9195 14.2198 13.0357 14.1587C13.152 14.0976 13.2792 14.0599 13.41 14.048C13.5408 14.036 13.6727 14.05 13.7981 14.089C13.9236 14.128 14.0401 14.1913 14.1411 14.2754C14.242 14.3594 14.3254 14.4625 14.3865 14.5788C14.4476 14.6951 14.4852 14.8223 14.4972 14.9531C14.5091 15.0839 14.4952 15.2158 14.4562 15.3412C14.4172 15.4667 14.3538 15.5832 14.2698 15.6841ZM21.0011 8.04413C20.7044 8.04413 20.4144 7.95616 20.1677 7.79133C19.921 7.62651 19.7288 7.39224 19.6152 7.11815C19.5017 6.84406 19.472 6.54246 19.5299 6.25149C19.5878 5.96052 19.7306 5.69325 19.9404 5.48347C20.1502 5.27369 20.4174 5.13083 20.7084 5.07295C20.9994 5.01507 21.301 5.04478 21.5751 5.15831C21.8492 5.27184 22.0834 5.4641 22.2483 5.71077C22.4131 5.95745 22.5011 6.24746 22.5011 6.54413C22.5011 6.94195 22.343 7.32348 22.0617 7.60479C21.7804 7.88609 21.3989 8.04413 21.0011 8.04413Z" fill="#0065F2"/>
</svg>
