<svg width="29" height="26" viewBox="0 0 29 26" fill="none" xmlns="http://www.w3.org/2000/svg">
<path d="M27.4781 1.06946C27.1524 0.743675 26.7655 0.485408 26.3397 0.309469C25.914 0.13353 25.4576 0.043382 24.9969 0.0441949C24.5362 0.0450078 24.0802 0.136766 23.6551 0.314206C23.2299 0.491647 22.844 0.751278 22.5194 1.07821L0.785617 23.3707C0.661096 23.4977 0.572697 23.6556 0.529532 23.8281C0.486367 24.0007 0.489999 24.1816 0.540052 24.3523C0.590105 24.5229 0.684769 24.6772 0.814285 24.7991C0.943801 24.9209 1.10348 25.0061 1.27687 25.0457C2.71145 25.3782 4.17927 25.5459 5.65187 25.5457C9.82937 25.5457 14.0119 24.1857 17.9431 21.5195C21.9119 18.8282 24.2119 15.7882 24.3081 15.6595C24.4527 15.4669 24.523 15.2286 24.506 14.9884C24.489 14.7482 24.3859 14.5222 24.2156 14.352L21.8731 12.007L27.4981 6.00696C28.1457 5.34718 28.5068 4.45856 28.5031 3.5341C28.4993 2.60963 28.131 1.72397 27.4781 1.06946ZM22.1544 15.1245C20.5695 16.939 18.7584 18.5429 16.7656 19.897C12.4569 22.8032 8.01562 23.9845 3.53562 23.417L16.8231 9.79196L22.1544 15.1245Z" fill="#0065F2"/>
</svg>
