<svg width="25" height="28" viewBox="0 0 25 28" fill="none" xmlns="http://www.w3.org/2000/svg">
<path d="M22.4996 9.04419H8.49963V6.04419C8.49963 4.98332 8.92106 3.96591 9.67121 3.21576C10.4214 2.46562 11.4388 2.04419 12.4996 2.04419C14.4209 2.04419 16.1496 3.41919 16.5196 5.24294C16.5746 5.50065 16.729 5.72626 16.9493 5.87074C17.1697 6.01522 17.4382 6.06689 17.6964 6.01451C17.9547 5.96214 18.1818 5.80996 18.3285 5.59105C18.4751 5.37214 18.5294 5.10419 18.4796 4.84544C17.9146 2.06294 15.3996 0.0441895 12.4996 0.0441895C10.9088 0.0458439 9.38368 0.678516 8.25882 1.80338C7.13396 2.92824 6.50129 4.4534 6.49963 6.04419V9.04419H2.49963C1.9692 9.04419 1.46049 9.2549 1.08542 9.62998C0.710347 10.005 0.499634 10.5138 0.499634 11.0442V25.0442C0.499634 25.5746 0.710347 26.0833 1.08542 26.4584C1.46049 26.8335 1.9692 27.0442 2.49963 27.0442H22.4996C23.0301 27.0442 23.5388 26.8335 23.9138 26.4584C24.2889 26.0833 24.4996 25.5746 24.4996 25.0442V11.0442C24.4996 10.5138 24.2889 10.005 23.9138 9.62998C23.5388 9.2549 23.0301 9.04419 22.4996 9.04419ZM13.4996 18.8729V22.0442C13.4996 22.3094 13.3943 22.5638 13.2067 22.7513C13.0192 22.9388 12.7649 23.0442 12.4996 23.0442C12.2344 23.0442 11.9801 22.9388 11.7925 22.7513C11.605 22.5638 11.4996 22.3094 11.4996 22.0442V18.8729C10.8324 18.637 10.2701 18.1729 9.912 17.5625C9.55393 16.952 9.42317 16.2347 9.54284 15.5372C9.66251 14.8397 10.0249 14.207 10.566 13.7508C11.107 13.2947 11.7919 13.0445 12.4996 13.0445C13.2073 13.0445 13.8922 13.2947 14.4333 13.7508C14.9744 14.207 15.3368 14.8397 15.4564 15.5372C15.5761 16.2347 15.4453 16.952 15.0873 17.5625C14.7292 18.1729 14.1668 18.637 13.4996 18.8729Z" fill="#0065F2"/>
</svg>
