<svg width="30" height="28" viewBox="0 0 30 28" fill="none" xmlns="http://www.w3.org/2000/svg">
<path d="M28.9181 12.0441L20.4856 3.55408C18.2335 1.30649 15.1817 0.0441895 12 0.0441895C8.8182 0.0441895 5.76642 1.30649 3.51433 3.55408L3.50308 3.56533L1.78183 5.34408C1.60353 5.5357 1.50746 5.78959 1.51425 6.05124C1.52104 6.3129 1.63015 6.56146 1.81815 6.74357C2.00615 6.92568 2.25806 7.02682 2.5198 7.02528C2.78153 7.02374 3.03224 6.91964 3.21808 6.73533L4.93433 4.96283C5.62482 4.27249 6.41278 3.6871 7.27308 3.22533L13.0856 9.04408L1.08558 21.0441C0.899816 21.2298 0.752456 21.4503 0.651918 21.693C0.55138 21.9357 0.499634 22.1958 0.499634 22.4585C0.499634 22.7211 0.55138 22.9812 0.651918 23.2239C0.752456 23.4666 0.899816 23.6871 1.08558 23.8728L3.67183 26.4591C3.85755 26.6448 4.07805 26.7922 4.32073 26.8927C4.56342 26.9933 4.82352 27.045 5.08621 27.045C5.34889 27.045 5.609 26.9933 5.85168 26.8927C6.09436 26.7922 6.31486 26.6448 6.50058 26.4591L18.5006 14.4591L22.5006 18.4591C22.6863 18.6448 22.9068 18.7922 23.1495 18.8927C23.3922 18.9933 23.6523 19.045 23.915 19.045C24.1776 19.045 24.4377 18.9933 24.6804 18.8927C24.9231 18.7922 25.1436 18.6448 25.3293 18.4591L28.9156 14.8728C29.1015 14.6873 29.2491 14.4669 29.3498 14.2243C29.4506 13.9817 29.5025 13.7217 29.5028 13.459C29.503 13.1963 29.4515 12.9361 29.3512 12.6934C29.2508 12.4506 29.1037 12.23 28.9181 12.0441ZM17.7931 12.3353L15.0006 15.1278L12.4143 12.5441L15.2081 9.75033C15.3011 9.65746 15.3748 9.54717 15.4251 9.42577C15.4755 9.30437 15.5014 9.17425 15.5014 9.04283C15.5014 8.91142 15.4755 8.78129 15.4251 8.65989C15.3748 8.53849 15.3011 8.42821 15.2081 8.33533L9.29058 2.41908C11.0002 1.93758 12.8073 1.92012 14.526 2.36851C16.2446 2.81691 17.8128 3.71496 19.0693 4.97033L24.5968 10.5341L21.0006 14.1266L19.2081 12.3341C19.1152 12.2411 19.0049 12.1673 18.8835 12.117C18.7621 12.0667 18.632 12.0408 18.5006 12.0408C18.3692 12.0408 18.239 12.0667 18.1176 12.117C17.9962 12.1673 17.886 12.2411 17.7931 12.3341V12.3353ZM23.9181 17.0428L22.4181 15.5428L26.0006 11.9503L27.5006 13.4503L23.9181 17.0428Z" fill="#0065F2"/>
</svg>
