<svg width="20" height="21" viewBox="0 0 20 21" fill="none" xmlns="http://www.w3.org/2000/svg">
<path fill-rule="evenodd" clip-rule="evenodd" d="M18.8966 0.545654H1.10345C0.494031 0.545654 0 1.03968 0 1.6491V19.4422C0 20.0516 0.494031 20.5457 1.10345 20.5457H10.6897V12.8112H8.08621V9.78359H10.6897V7.556C10.6897 4.97324 12.269 3.56634 14.5724 3.56634C15.3486 3.56465 16.1244 3.60379 16.8966 3.68359V6.38359H15.3103C14.0552 6.38359 13.8103 6.97669 13.8103 7.85255V9.78014H16.8103L16.4207 12.8077H13.7931V20.5457H18.8966C19.506 20.5457 20 20.0516 20 19.4422V1.6491C20 1.03968 19.506 0.545654 18.8966 0.545654Z" fill="#0065F2"/>
</svg>
