<svg width="16" height="17" viewBox="0 0 16 17" fill="none" xmlns="http://www.w3.org/2000/svg">
<path fill-rule="evenodd" clip-rule="evenodd" d="M15.1172 0.545654H0.882759C0.395224 0.545654 0 0.940879 0 1.42841V15.6629C0 16.1504 0.395224 16.5457 0.882759 16.5457H8.55172V10.3581H6.46897V7.936H8.55172V6.15393C8.55172 4.08772 9.81517 2.96221 11.6579 2.96221C12.2789 2.96085 12.8995 2.99216 13.5172 3.056V5.216H12.2483C11.2441 5.216 11.0483 5.69048 11.0483 6.39117V7.93324H13.4483L13.1366 10.3553H11.0345V16.5457H15.1172C15.6048 16.5457 16 16.1504 16 15.6629V1.42841C16 0.940879 15.6048 0.545654 15.1172 0.545654Z" fill="#0065F2"/>
</svg>
