<svg width="20" height="21" viewBox="0 0 20 21" fill="none" xmlns="http://www.w3.org/2000/svg">
<path fill-rule="evenodd" clip-rule="evenodd" d="M5.87701 0.605832C6.94362 0.557166 7.28416 0.545654 10 0.545654C12.7158 0.545654 13.0564 0.557166 14.123 0.605832C15.1874 0.654379 15.9143 0.82344 16.5504 1.07066C17.208 1.32618 17.7656 1.66811 18.3216 2.22404C18.8775 2.78001 19.2195 3.33769 19.475 3.99527C19.7222 4.63135 19.8913 5.35828 19.9398 6.42267C19.9885 7.48927 20 7.82982 20 10.5457C20 13.2615 19.9885 13.602 19.9398 14.6686C19.8913 15.733 19.7222 16.46 19.475 17.096C19.2195 17.7536 18.8775 18.3113 18.3216 18.8673C17.7656 19.4232 17.208 19.7651 16.5504 20.0207C15.9143 20.2679 15.1874 20.4369 14.123 20.4855C13.0564 20.5341 12.7158 20.5457 10 20.5457C7.28416 20.5457 6.94362 20.5341 5.87701 20.4855C4.81263 20.4369 4.08569 20.2679 3.44962 20.0207C2.79203 19.7651 2.23436 19.4232 1.67839 18.8673C1.12246 18.3113 0.780524 17.7536 0.525007 17.096C0.277786 16.46 0.108725 15.733 0.0601777 14.6686C0.0115116 13.602 0 13.2615 0 10.5457C0 7.82982 0.0115116 7.48927 0.0601777 6.42267C0.108725 5.35828 0.277786 4.63135 0.525007 3.99527C0.780524 3.33769 1.12246 2.78001 1.67839 2.22404C2.23436 1.66811 2.79203 1.32618 3.44962 1.07066C4.08569 0.82344 4.81263 0.654379 5.87701 0.605832ZM15.8977 2.75008C15.5453 2.61313 15.0158 2.45022 14.0409 2.40576C12.9864 2.35765 12.6701 2.34745 10 2.34745C7.32989 2.34745 7.0136 2.35765 5.95914 2.40576C4.98415 2.45022 4.45466 2.61313 4.10229 2.75008C3.63551 2.93149 3.30239 3.14818 2.95248 3.49813C2.60253 3.84805 2.38583 4.18117 2.20443 4.64794C2.06748 5.00031 1.90457 5.52981 1.86011 6.5048C1.812 7.55926 1.8018 7.87555 1.8018 10.5457C1.8018 13.2158 1.812 13.5321 1.86011 14.5865C1.90457 15.5615 2.06748 16.091 2.20443 16.4434C2.38583 16.9101 2.60257 17.2433 2.95248 17.5932C3.30239 17.9431 3.63551 18.1598 4.10229 18.3412C4.45466 18.4782 4.98415 18.6411 5.95914 18.6855C7.01348 18.7337 7.32969 18.7439 10 18.7439C12.6703 18.7439 12.9866 18.7337 14.0409 18.6855C15.0158 18.6411 15.5453 18.4782 15.8977 18.3412C16.3645 18.1598 16.6976 17.9431 17.0475 17.5932C17.3975 17.2433 17.6142 16.9101 17.7956 16.4434C17.9325 16.091 18.0954 15.5615 18.1399 14.5865C18.188 13.5321 18.1982 13.2158 18.1982 10.5457C18.1982 7.87555 18.188 7.55926 18.1399 6.5048C18.0954 5.52981 17.9325 5.00031 17.7956 4.64794C17.6142 4.18117 17.3975 3.84805 17.0475 3.49813C16.6976 3.14818 16.3645 2.93149 15.8977 2.75008ZM10 5.41052C7.16393 5.41052 4.86487 7.70958 4.86487 10.5457C4.86487 13.3817 7.16393 15.6808 10 15.6808C12.8361 15.6808 15.1351 13.3817 15.1351 10.5457C15.1351 7.70958 12.8361 5.41052 10 5.41052ZM6.66667 10.5457C6.66667 12.3866 8.15904 13.879 10 13.879C11.841 13.879 13.3333 12.3866 13.3333 10.5457C13.3333 8.7047 11.841 7.21232 10 7.21232C8.15904 7.21232 6.66667 8.7047 6.66667 10.5457ZM15.338 6.40762C16.0008 6.40762 16.538 5.87039 16.538 5.20764C16.538 4.54489 16.0008 4.00762 15.338 4.00762C14.6753 4.00762 14.138 4.54489 14.138 5.20764C14.138 5.87039 14.6753 6.40762 15.338 6.40762Z" fill="#0065F2"/>
</svg>
