<svg width="20" height="21" viewBox="0 0 20 21" fill="none" xmlns="http://www.w3.org/2000/svg">
<path fill-rule="evenodd" clip-rule="evenodd" d="M17.0432 17.5879H14.0774V12.9457C14.0774 11.839 14.0574 10.4157 12.5351 10.4157C10.9928 10.4157 10.7573 11.6223 10.7573 12.8668V17.5879H7.79377V8.04343H10.6361V9.34788H10.6773C11.0739 8.59788 12.0407 7.80677 13.4841 7.80677C16.4887 7.80677 17.0432 9.78232 17.0432 12.3534V17.5879ZM4.44914 6.7401C3.49575 6.7401 2.72682 5.96899 2.72682 5.01899C2.72682 4.0701 3.49575 3.29899 4.44914 3.29899C5.39697 3.29899 6.16812 4.0701 6.16812 5.01899C6.16812 5.96899 5.39697 6.7401 4.44914 6.7401ZM2.96239 17.5879H5.93255V8.04343H2.96239V17.5879ZM18.5199 0.545654H1.47453C0.661148 0.545654 0 1.19121 0 1.98788V19.1023C0 19.899 0.661148 20.5457 1.47453 20.5457H18.5199C19.3355 20.5457 20 19.899 20 19.1023V1.98788C20 1.19121 19.3355 0.545654 18.5199 0.545654Z" fill="#0065F2"/>
</svg>
