<svg width="142" height="30" viewBox="0 0 142 30" fill="none" xmlns="http://www.w3.org/2000/svg">
<path d="M15.216 23V18.616H5.232V0.0239983H0.368V23H15.216ZM24.3485 23.32C29.3085 23.32 33.0205 19.416 33.0205 14.456C33.0205 9.464 29.3085 5.592 24.3485 5.592C19.3885 5.592 15.6765 9.464 15.6765 14.456C15.6765 19.416 19.3885 23.32 24.3485 23.32ZM24.3485 19.384C22.1405 19.384 20.2525 17.624 20.2525 14.456C20.2525 11.288 22.1405 9.56 24.3485 9.56C26.5565 9.56 28.4445 11.288 28.4445 14.456C28.4445 17.624 26.5565 19.384 24.3485 19.384ZM42.059 23.32C46.635 23.32 49.835 20.408 50.347 15.704H45.675C45.419 18.04 44.107 19.384 42.059 19.384C39.723 19.384 38.283 17.528 38.283 14.456C38.283 11.416 39.755 9.528 42.059 9.528C44.075 9.528 45.451 10.936 45.675 13.208H50.347C49.803 8.6 46.507 5.592 42.059 5.592C37.259 5.592 33.739 9.336 33.739 14.456C33.739 19.672 37.131 23.32 42.059 23.32ZM62.3788 23H65.9948V12.248C65.9948 8.056 63.3708 5.592 58.8908 5.592C54.7628 5.592 51.9148 8.152 51.6588 12.088H55.6588C55.8188 10.168 56.9708 9.048 58.8908 9.048C60.7468 9.048 61.8348 10.168 61.8348 12.088V13.112C60.7788 12.984 59.9468 12.92 58.9868 12.92C53.9948 12.92 51.3068 14.712 51.3068 18.04C51.3068 21.24 53.6748 23.32 57.2268 23.32C59.5628 23.32 61.2588 22.488 62.3788 20.888V23ZM55.4988 17.912C55.4988 16.376 56.7468 15.576 59.2748 15.576C60.0428 15.576 60.7788 15.64 61.8348 15.8V17.016C61.8348 19 60.4588 20.248 58.1868 20.248C56.5228 20.248 55.4988 19.352 55.4988 17.912ZM73.3078 23V0.0239983H68.8278V23H73.3078Z" fill="#000B1A"/>
<path d="M81.5445 23V13.272H91.4965V23H96.3605V0.0239983H91.4965V9.08H81.5445V0.0239983H76.6805V23H81.5445ZM107.127 23.288C111.287 23.288 114.263 21.08 115.223 17.208H110.807C110.295 18.904 108.983 19.864 107.031 19.864C104.759 19.864 103.415 18.328 103.127 15.544H115.255C116.055 9.976 112.471 5.592 107.063 5.592C102.135 5.592 98.5828 9.304 98.5828 14.392C98.5828 19.736 102.007 23.288 107.127 23.288ZM106.967 8.856C109.079 8.856 110.423 10.36 110.551 12.728H103.191C103.575 10.2 104.887 8.856 106.967 8.856ZM121.714 23V0.0239983H117.234V23H121.714ZM141.759 14.456C141.759 9.432 138.783 5.592 134.175 5.592C131.999 5.592 130.111 6.584 128.799 8.408V5.912H124.703V29.176H129.151V20.792C130.431 22.456 132.159 23.32 134.175 23.32C138.783 23.32 141.759 19.512 141.759 14.456ZM137.183 14.456C137.183 17.72 135.359 19.352 133.183 19.352C131.007 19.352 129.183 17.688 129.183 14.456C129.183 11.224 131.007 9.528 133.183 9.528C135.359 9.528 137.183 11.256 137.183 14.456Z" fill="#0065F2"/>
</svg>
