<svg width="20" height="21" viewBox="0 0 20 21" fill="none" xmlns="http://www.w3.org/2000/svg">
<path fill-rule="evenodd" clip-rule="evenodd" d="M2.5 20.5457H17.5C18.88 20.5457 20 19.4257 20 18.0457V3.04565C20 1.66565 18.88 0.545654 17.5 0.545654H2.5C1.12 0.545654 0 1.66565 0 3.04565V18.0457C0 19.4257 1.12 20.5457 2.5 20.5457ZM14.975 8.33065C14.975 11.7157 12.395 15.6257 7.68 15.6257C6.235 15.6257 4.885 15.2007 3.755 14.4807C3.955 14.5057 4.16 14.5157 4.365 14.5157C5.565 14.5157 6.67 14.1057 7.55 13.4157C6.43 13.3957 5.48 12.6557 5.155 11.6357C5.31 11.6657 5.47 11.6807 5.635 11.6807C5.87 11.6807 6.095 11.6507 6.31 11.5907C5.14 11.3557 4.255 10.3157 4.255 9.07565V9.04065C4.6 9.23065 4.995 9.34565 5.415 9.36065C4.73 8.90065 4.275 8.11565 4.275 7.22565C4.275 6.75565 4.4 6.31565 4.62 5.93565C5.885 7.48565 7.775 8.51065 9.905 8.61565C9.865 8.42565 9.84 8.23065 9.84 8.03065C9.84 6.61565 10.99 5.46565 12.405 5.46565C13.14 5.46565 13.805 5.77565 14.275 6.27565C14.86 6.16065 15.41 5.95065 15.905 5.65565C15.71 6.25565 15.305 6.76065 14.775 7.07565C15.295 7.01065 15.79 6.87565 16.25 6.67065C15.905 7.18565 15.47 7.64065 14.97 8.00065C14.975 8.11063 14.975 8.22061 14.975 8.33059V8.33065Z" fill="#0065F2"/>
</svg>
