<svg width="16" height="17" viewBox="0 0 16 17" fill="none" xmlns="http://www.w3.org/2000/svg">
<path fill-rule="evenodd" clip-rule="evenodd" d="M5.02601 15.5557C11.0636 15.5557 14.3673 10.5489 14.3673 6.21432C14.3673 6.07347 14.3673 5.93261 14.3609 5.79175C15.0012 5.33077 15.5582 4.74814 16 4.08867C15.411 4.35118 14.7771 4.52405 14.1112 4.60728C14.7899 4.20392 15.3085 3.55726 15.5582 2.78895C14.9244 3.1667 14.2201 3.43561 13.471 3.58287C12.8691 2.94261 12.0176 2.54565 11.0764 2.54565C9.26451 2.54565 7.79192 4.01824 7.79192 5.83017C7.79192 6.08627 7.82393 6.33597 7.87515 6.57927C5.14766 6.44481 2.72749 5.13229 1.10764 3.1475C0.82593 3.63409 0.665866 4.19752 0.665866 4.79936C0.665866 5.93901 1.2485 6.94421 2.12565 7.53325C1.58784 7.51404 1.08203 7.36678 0.640256 7.12349C0.640256 7.13629 0.640256 7.1491 0.640256 7.1683C0.640256 8.75614 1.77351 10.0879 3.27171 10.3888C2.9964 10.4656 2.70828 10.504 2.40736 10.504C2.19608 10.504 1.9912 10.4848 1.79272 10.4464C2.20888 11.7525 3.42537 12.7001 4.85954 12.7257C3.73269 13.6093 2.31773 14.1343 0.781112 14.1343C0.518607 14.1343 0.256102 14.1215 0 14.0895C1.44698 15.0114 3.17567 15.5557 5.02601 15.5557Z" fill="#0065F2"/>
</svg>
